<svg id="svg" version="1.1" xmlns="http://www.w3.org/2000/svg" xmlns:xlink="http://www.w3.org/1999/xlink" width="400" height="400" viewBox="0, 0, 400,400"><g id="svgg"><path id="path0" d="M226.800 111.228 C 215.704 111.884,209.756 112.438,205.200 113.239 C 203.990 113.452,201.830 113.770,200.400 113.945 C 198.970 114.121,197.412 114.472,196.938 114.726 C 196.464 114.980,194.754 115.304,193.138 115.446 C 191.522 115.589,189.445 116.041,188.522 116.453 C 187.599 116.864,186.249 117.200,185.522 117.200 C 184.795 117.200,183.120 117.557,181.800 117.993 C 180.480 118.429,177.600 119.334,175.400 120.004 C 173.200 120.674,171.040 121.386,170.600 121.587 C 170.160 121.787,168.540 122.355,167.000 122.849 C 165.460 123.344,163.840 123.967,163.400 124.235 C 162.960 124.502,161.970 124.850,161.200 125.007 C 160.430 125.164,159.598 125.455,159.350 125.653 C 158.875 126.035,152.499 129.258,150.800 129.976 C 150.250 130.208,149.530 130.569,149.200 130.777 C 148.870 130.986,147.250 131.918,145.600 132.848 C 143.950 133.778,141.970 135.017,141.200 135.601 C 140.430 136.186,138.090 137.934,136.000 139.487 C 132.429 142.140,125.918 148.326,125.047 149.892 C 124.831 150.282,123.967 151.471,123.127 152.536 C 122.287 153.601,121.600 154.620,121.600 154.801 C 121.600 154.982,120.970 156.087,120.200 157.256 C 119.430 158.425,118.799 159.566,118.798 159.791 C 118.796 160.016,118.503 160.740,118.146 161.400 C 113.420 170.140,116.049 193.249,122.504 199.704 C 122.909 200.109,123.367 200.771,123.520 201.175 C 124.682 204.227,133.600 212.496,141.125 217.498 C 143.922 219.358,144.373 218.944,143.264 215.536 C 139.277 203.288,139.756 188.679,144.403 180.800 C 144.598 180.470,145.298 179.073,145.960 177.695 C 146.622 176.317,147.441 175.082,147.782 174.952 C 148.122 174.821,148.400 174.503,148.400 174.246 C 148.400 173.988,149.000 173.152,149.734 172.388 C 150.468 171.625,151.235 170.694,151.439 170.320 C 151.822 169.616,156.946 165.254,160.271 162.800 C 162.426 161.210,163.119 160.800,167.242 158.677 C 168.869 157.840,170.470 156.985,170.800 156.777 C 171.130 156.569,171.850 156.220,172.400 156.001 C 172.950 155.781,173.670 155.433,174.000 155.226 C 175.173 154.492,177.211 153.661,178.496 153.393 C 179.213 153.244,180.175 152.885,180.634 152.595 C 181.905 151.792,187.328 150.000,188.486 150.000 C 189.051 150.000,190.297 149.644,191.256 149.209 C 192.215 148.774,193.431 148.414,193.957 148.409 C 194.483 148.404,196.103 148.067,197.557 147.659 C 202.478 146.281,207.964 145.242,215.800 144.205 C 218.220 143.884,221.460 143.433,223.000 143.202 C 238.746 140.841,278.603 140.733,281.231 143.045 C 281.579 143.350,282.044 143.600,282.266 143.600 C 283.257 143.600,286.563 146.729,287.532 148.585 C 288.528 150.492,288.596 150.995,288.792 157.968 L 289.000 165.337 290.200 166.039 C 291.232 166.643,292.517 166.744,299.400 166.762 C 310.165 166.789,309.357 167.489,309.540 157.984 C 309.779 145.512,310.050 145.897,300.818 145.600 C 295.603 145.432,294.374 145.272,293.200 144.609 C 291.484 143.638,287.600 140.000,287.600 139.363 C 287.600 139.107,287.340 138.682,287.023 138.419 C 285.214 136.918,284.400 132.184,284.400 123.173 L 284.400 114.550 283.300 113.545 C 280.502 110.990,280.943 111.030,255.200 110.979 C 242.330 110.953,229.550 111.066,226.800 111.228 M299.722 114.165 L 298.600 115.129 298.475 123.265 C 298.277 136.180,297.574 135.400,309.400 135.400 C 316.692 135.400,317.972 135.306,319.100 134.690 L 320.400 133.979 320.400 124.200 L 320.400 114.421 319.220 113.810 C 316.972 112.648,301.153 112.935,299.722 114.165 M332.790 124.626 C 332.576 125.190,332.397 127.125,332.394 128.926 C 332.380 137.118,327.953 142.075,320.425 142.329 C 315.506 142.495,315.598 142.372,315.606 148.776 C 315.614 155.457,315.742 155.600,321.714 155.600 C 328.501 155.600,329.200 154.890,329.200 148.000 C 329.200 140.174,333.238 136.400,341.610 136.400 L 344.841 136.400 345.463 134.910 C 346.326 132.847,346.076 126.186,345.079 124.665 L 344.382 123.600 338.781 123.600 L 333.180 123.600 332.790 124.626 M341.689 145.823 C 340.872 146.395,340.800 146.767,340.800 150.400 C 340.800 155.367,341.027 155.600,345.866 155.600 C 350.118 155.600,350.400 155.269,350.400 150.285 C 350.400 145.279,350.333 145.200,346.075 145.200 C 343.557 145.200,342.329 145.374,341.689 145.823 M192.400 175.936 C 192.070 176.132,190.704 176.401,189.365 176.533 C 182.541 177.208,170.400 187.213,170.400 192.162 C 170.400 192.317,170.067 193.199,169.660 194.122 C 168.444 196.877,167.771 202.465,168.329 205.167 C 168.588 206.422,168.800 207.804,168.800 208.239 C 168.800 209.489,171.396 215.410,173.011 217.843 C 180.104 228.530,195.125 232.761,206.046 227.149 C 210.112 225.059,211.096 224.392,213.429 222.142 C 220.111 215.699,223.192 206.955,221.654 198.800 C 220.737 193.935,220.244 192.152,219.539 191.138 C 219.133 190.554,218.800 189.978,218.800 189.857 C 218.800 187.256,210.469 179.894,205.069 177.724 C 201.502 176.291,193.663 175.184,192.400 175.936 M201.891 178.000 C 202.450 178.440,203.440 178.800,204.091 178.800 C 204.741 178.800,205.731 179.160,206.291 179.600 C 206.850 180.040,207.644 180.400,208.054 180.400 C 208.464 180.400,208.800 180.658,208.800 180.973 C 208.800 181.288,209.178 181.666,209.639 181.813 C 210.101 181.959,210.776 182.342,211.139 182.663 C 213.919 185.122,215.200 186.482,215.200 186.973 C 215.200 187.288,215.560 187.660,216.000 187.800 C 216.440 187.940,216.800 188.383,216.800 188.784 C 216.800 189.186,217.053 189.612,217.362 189.730 C 217.672 189.849,218.049 190.510,218.200 191.200 C 218.351 191.890,218.711 192.544,218.999 192.655 C 219.336 192.784,219.620 194.016,219.799 196.128 C 219.951 197.927,220.328 199.799,220.638 200.286 C 221.323 201.366,221.382 204.273,220.723 204.492 C 220.435 204.588,220.123 206.058,219.934 208.203 C 219.725 210.588,219.437 211.859,219.057 212.072 C 218.746 212.246,218.372 213.021,218.227 213.794 C 218.082 214.567,217.794 215.200,217.587 215.200 C 217.380 215.200,216.961 215.798,216.656 216.528 C 216.351 217.259,215.178 218.765,214.050 219.875 C 212.923 220.985,212.000 222.058,212.000 222.259 C 212.000 222.460,211.505 222.848,210.900 223.120 C 208.772 224.079,207.547 224.874,207.332 225.434 C 207.207 225.759,206.569 226.000,205.833 226.000 C 205.104 226.000,204.180 226.345,203.692 226.800 C 202.895 227.543,202.281 227.600,195.079 227.600 C 187.832 227.600,187.277 227.548,186.600 226.800 C 186.151 226.304,185.368 226.000,184.538 226.000 C 183.802 226.000,183.200 225.811,183.200 225.581 C 183.200 225.350,182.697 224.945,182.082 224.681 C 180.901 224.173,180.541 223.893,177.995 221.500 C 177.117 220.675,176.219 220.000,176.000 220.000 C 175.780 220.000,175.600 219.736,175.600 219.414 C 175.600 219.092,175.240 218.635,174.800 218.400 C 174.360 218.165,174.000 217.732,174.000 217.440 C 174.000 217.147,173.640 216.450,173.200 215.891 C 172.760 215.331,172.400 214.611,172.400 214.291 C 172.400 213.970,172.040 213.250,171.600 212.691 C 171.160 212.131,170.800 211.176,170.800 210.568 C 170.800 209.960,170.506 209.138,170.146 208.741 C 169.171 207.663,169.161 197.548,170.134 196.473 C 170.500 196.068,170.800 195.104,170.800 194.330 C 170.800 193.432,171.089 192.663,171.600 192.200 C 172.040 191.802,172.400 191.171,172.400 190.799 C 172.400 190.427,172.760 189.707,173.200 189.200 C 173.640 188.693,174.000 188.037,174.000 187.742 C 174.000 187.448,174.360 186.982,174.800 186.707 C 175.240 186.432,175.600 185.993,175.600 185.731 C 175.600 185.468,175.960 185.140,176.400 185.000 C 176.840 184.860,177.200 184.500,177.200 184.200 C 177.200 183.900,177.560 183.540,178.000 183.400 C 178.440 183.260,178.800 182.888,178.800 182.573 C 178.800 182.258,179.046 182.000,179.346 182.000 C 179.646 182.000,180.350 181.640,180.909 181.200 C 181.469 180.760,182.189 180.400,182.509 180.400 C 182.830 180.400,183.521 180.063,184.046 179.651 C 184.571 179.239,185.755 178.775,186.677 178.620 C 187.599 178.465,188.566 178.082,188.826 177.769 C 189.654 176.771,200.574 176.964,201.891 178.000 M247.776 177.882 C 247.920 178.257,248.141 179.382,248.267 180.382 C 248.393 181.382,248.779 182.650,249.126 183.200 C 250.737 185.758,251.524 199.450,250.459 206.400 C 249.692 211.405,246.847 217.403,242.637 222.890 C 241.001 225.022,234.774 231.154,233.994 231.402 C 233.557 231.541,233.200 231.791,233.200 231.960 C 233.200 232.128,232.300 232.848,231.200 233.561 C 230.100 234.274,229.200 235.024,229.200 235.229 C 229.200 235.433,228.969 235.600,228.687 235.600 C 228.404 235.600,227.009 236.212,225.587 236.960 C 219.432 240.195,214.744 242.400,214.021 242.400 C 213.825 242.400,213.155 242.665,212.532 242.989 C 210.422 244.088,208.608 244.763,206.100 245.382 C 199.833 246.931,198.583 247.283,198.189 247.609 C 197.958 247.801,196.583 248.147,195.134 248.379 C 193.685 248.610,191.891 249.047,191.149 249.349 C 190.407 249.651,188.190 250.023,186.223 250.176 C 184.256 250.329,182.303 250.638,181.885 250.862 C 181.466 251.086,179.476 251.415,177.462 251.594 C 175.448 251.773,173.091 252.106,172.225 252.334 C 171.359 252.563,167.579 252.952,163.825 253.199 C 160.071 253.446,156.100 253.826,155.000 254.043 C 153.900 254.260,146.070 254.474,137.600 254.519 L 122.200 254.600 119.800 253.601 C 112.157 250.418,111.056 248.422,110.421 236.600 C 110.244 233.300,110.077 230.568,110.050 230.529 C 109.170 229.265,108.681 229.200,100.013 229.200 L 91.283 229.200 90.019 230.640 L 88.755 232.079 88.877 240.275 L 89.000 248.471 90.122 249.435 C 91.199 250.360,91.486 250.400,97.138 250.400 C 102.241 250.400,103.241 250.507,104.600 251.200 C 105.463 251.640,106.409 252.000,106.702 252.000 C 106.995 252.000,108.171 252.704,109.317 253.564 C 114.475 257.437,114.849 258.621,115.206 272.200 C 115.350 277.700,115.498 282.221,115.534 282.246 C 119.270 284.825,120.644 285.328,125.800 286.003 C 129.926 286.542,156.612 286.278,163.600 285.628 C 165.910 285.413,171.073 285.062,175.072 284.847 C 179.072 284.633,182.672 284.284,183.072 284.071 C 183.473 283.858,185.420 283.562,187.400 283.413 C 189.380 283.263,192.080 282.808,193.400 282.401 C 194.720 281.994,197.060 281.539,198.600 281.391 C 200.140 281.243,201.614 280.946,201.876 280.731 C 202.138 280.517,203.668 280.091,205.276 279.785 C 210.186 278.850,218.180 276.639,219.000 275.989 C 219.220 275.814,220.120 275.545,221.000 275.391 C 221.880 275.237,222.999 274.860,223.486 274.555 C 223.973 274.250,224.603 273.998,224.886 273.996 C 225.169 273.994,226.300 273.550,227.400 273.009 C 228.500 272.468,229.783 272.019,230.251 272.013 C 230.719 272.006,231.326 271.730,231.600 271.400 C 231.874 271.070,232.284 270.800,232.510 270.800 C 233.239 270.800,238.422 268.327,244.490 265.084 C 245.529 264.529,246.858 263.698,247.444 263.237 C 248.029 262.777,248.671 262.400,248.870 262.400 C 249.873 262.400,258.549 255.773,261.976 252.389 C 265.926 248.489,270.158 243.393,270.598 242.007 C 270.763 241.487,271.058 240.868,271.255 240.631 C 273.040 238.475,274.942 234.079,275.421 231.000 C 275.558 230.120,275.969 228.770,276.335 228.000 C 277.266 226.039,277.258 212.561,276.325 211.131 C 275.991 210.619,275.587 209.300,275.427 208.200 C 274.663 202.934,269.572 194.764,263.000 188.255 C 255.575 180.902,246.584 174.776,247.776 177.882 M252.513 180.283 C 254.101 181.319,255.544 182.399,255.720 182.683 C 255.896 182.967,256.242 183.200,256.489 183.200 C 256.735 183.200,257.889 184.190,259.051 185.400 C 260.214 186.610,261.308 187.602,261.483 187.604 C 261.657 187.606,262.610 188.535,263.600 189.668 C 264.590 190.801,265.715 192.009,266.100 192.353 C 266.485 192.697,266.800 193.199,266.800 193.469 C 266.800 193.739,267.026 194.104,267.301 194.280 C 267.759 194.572,268.531 195.669,270.627 199.000 C 272.724 202.334,274.785 207.090,274.792 208.611 C 274.797 209.497,275.103 210.655,275.474 211.184 C 276.497 212.645,276.518 226.018,275.500 227.880 C 275.115 228.584,274.800 229.800,274.800 230.582 C 274.800 231.363,274.440 232.675,274.000 233.496 C 273.560 234.316,273.200 235.374,273.200 235.845 C 273.200 236.316,272.937 236.920,272.616 237.187 C 272.295 237.453,271.448 238.870,270.736 240.336 C 269.288 243.311,269.450 243.068,267.109 245.779 C 262.085 251.595,253.268 259.293,249.839 260.855 C 249.267 261.115,248.800 261.462,248.800 261.625 C 248.800 261.788,248.260 262.110,247.600 262.340 C 246.940 262.570,246.400 262.933,246.400 263.147 C 246.400 263.361,245.872 263.652,245.228 263.794 C 244.583 263.936,243.841 264.310,243.579 264.626 C 243.317 264.942,242.878 265.200,242.605 265.200 C 242.332 265.200,241.679 265.525,241.154 265.922 C 240.629 266.319,239.030 267.138,237.600 267.742 C 236.170 268.346,234.730 269.012,234.400 269.221 C 234.070 269.431,233.350 269.783,232.800 270.004 C 232.250 270.225,231.322 270.674,230.738 271.003 C 230.154 271.331,229.344 271.601,228.938 271.603 C 228.532 271.604,227.660 271.963,227.000 272.400 C 226.340 272.837,225.484 273.196,225.099 273.197 C 224.713 273.199,223.725 273.560,222.904 274.000 C 222.084 274.440,220.890 274.800,220.253 274.800 C 219.616 274.800,218.533 275.139,217.847 275.553 C 217.161 275.967,215.749 276.427,214.709 276.576 C 213.669 276.725,212.717 277.011,212.593 277.212 C 212.469 277.412,211.478 277.695,210.391 277.839 C 209.303 277.983,208.209 278.348,207.958 278.651 C 207.689 278.975,206.725 279.200,205.603 279.200 C 204.559 279.200,202.646 279.538,201.352 279.950 C 200.058 280.363,197.650 280.832,196.000 280.993 C 194.350 281.154,192.730 281.517,192.400 281.800 C 192.051 282.100,190.045 282.435,187.600 282.603 C 185.290 282.761,183.040 283.081,182.600 283.314 C 182.160 283.546,178.650 283.885,174.800 284.066 C 170.950 284.248,165.640 284.601,163.000 284.851 C 154.442 285.661,126.401 285.537,122.600 284.672 C 116.089 283.191,116.016 283.046,115.996 271.600 C 115.981 263.117,115.845 261.802,114.647 258.551 C 113.718 256.031,108.472 251.200,106.664 251.200 C 106.284 251.200,105.492 250.885,104.905 250.500 C 104.028 249.924,102.703 249.776,97.454 249.664 C 89.040 249.484,89.631 250.206,89.613 240.084 C 89.601 232.763,89.645 232.307,90.475 231.184 L 91.350 230.000 100.052 230.000 C 110.333 230.000,109.311 229.276,109.657 236.800 C 110.076 245.886,110.574 247.698,113.438 250.562 C 115.546 252.670,119.272 254.610,122.072 255.058 C 122.922 255.194,123.714 255.461,123.832 255.653 C 124.108 256.099,139.885 256.110,140.160 255.664 C 140.274 255.480,145.072 255.208,150.821 255.060 C 157.946 254.877,161.868 254.613,163.138 254.229 C 164.162 253.920,167.070 253.472,169.600 253.233 C 172.130 252.995,175.460 252.630,177.000 252.422 C 178.540 252.215,180.970 251.920,182.400 251.768 C 183.830 251.616,185.486 251.246,186.080 250.946 C 186.674 250.646,187.811 250.400,188.607 250.400 C 190.394 250.400,196.663 249.006,199.536 247.970 C 200.710 247.547,202.060 247.199,202.536 247.198 C 203.011 247.196,203.894 246.937,204.498 246.622 C 205.102 246.307,206.452 245.924,207.498 245.771 C 208.544 245.618,210.030 245.161,210.800 244.756 C 211.570 244.351,214.000 243.292,216.200 242.402 C 218.400 241.512,220.560 240.576,221.000 240.322 C 221.440 240.069,223.478 238.995,225.530 237.936 C 227.581 236.877,229.688 235.694,230.211 235.306 C 230.735 234.917,232.163 233.880,233.385 233.000 C 237.282 230.195,243.505 223.623,245.893 219.791 C 247.225 217.655,250.102 211.279,250.301 210.022 C 250.425 209.240,250.813 208.158,251.163 207.618 C 252.136 206.117,252.067 188.747,251.082 187.000 C 250.710 186.340,250.403 185.350,250.400 184.800 C 250.397 184.250,250.155 183.339,249.861 182.776 C 249.120 181.357,248.679 178.400,249.208 178.400 C 249.438 178.400,250.925 179.247,252.513 180.283 M49.477 240.703 C 47.776 241.090,47.261 248.807,48.841 250.238 C 50.314 251.572,56.670 251.583,58.103 250.254 C 59.712 248.764,59.674 241.645,58.055 240.984 C 57.304 240.677,50.563 240.457,49.477 240.703 M70.893 241.029 C 70.332 241.439,70.214 242.309,70.185 246.260 C 70.118 255.118,66.389 259.200,58.368 259.200 C 53.134 259.200,53.200 259.113,53.200 266.062 C 53.200 273.287,53.116 273.200,60.056 273.200 C 66.544 273.200,66.590 273.160,66.952 267.200 C 67.310 261.302,67.392 261.080,70.300 258.144 C 73.530 254.882,74.647 254.400,78.978 254.400 C 83.627 254.400,83.707 254.271,83.531 247.041 C 83.459 244.069,83.220 241.469,83.000 241.263 C 82.349 240.652,71.690 240.446,70.893 241.029 M57.601 242.003 C 57.843 242.454,57.980 244.337,57.916 246.303 L 57.800 249.800 53.400 249.800 L 49.000 249.800 48.882 246.400 C 48.694 240.983,48.514 241.200,53.194 241.200 C 56.767 241.200,57.216 241.282,57.601 242.003 M82.398 241.996 C 82.654 242.475,82.779 244.827,82.712 247.896 L 82.600 253.000 79.000 253.201 C 75.186 253.414,73.879 253.896,71.137 256.099 C 67.370 259.125,66.625 260.873,66.066 267.990 C 65.732 272.245,65.517 272.391,59.600 272.381 C 53.830 272.372,54.000 272.564,54.000 266.084 C 54.000 259.433,53.861 259.600,59.400 259.600 C 62.549 259.600,63.687 259.456,64.143 259.000 C 64.473 258.670,64.929 258.400,65.158 258.400 C 65.848 258.400,68.428 255.937,69.539 254.217 C 70.506 252.721,70.593 252.212,70.713 247.400 C 70.784 244.540,70.917 241.975,71.008 241.700 C 71.327 240.743,81.874 241.018,82.398 241.996 M79.036 262.031 L 78.000 263.261 78.005 271.931 C 78.013 284.359,77.112 283.351,88.376 283.530 C 101.505 283.740,100.400 284.799,100.400 272.000 C 100.400 259.464,101.687 260.800,89.607 260.800 L 80.071 260.800 79.036 262.031 M99.806 263.300 C 100.162 265.675,99.873 281.862,99.467 282.267 C 98.648 283.087,80.612 282.900,79.576 282.061 L 78.600 281.270 78.600 272.535 C 78.600 264.429,78.658 263.722,79.400 262.713 L 80.200 261.625 89.875 261.613 L 99.551 261.600 99.806 263.300 " stroke="none" fill="#6f65dc" fill-rule="evenodd"></path><path id="path1" d="M188.826 177.769 C 188.566 178.082,187.599 178.465,186.677 178.620 C 185.755 178.775,184.571 179.239,184.046 179.651 C 183.521 180.063,182.830 180.400,182.509 180.400 C 182.189 180.400,181.469 180.760,180.909 181.200 C 180.350 181.640,179.646 182.000,179.346 182.000 C 179.046 182.000,178.800 182.258,178.800 182.573 C 178.800 182.888,178.440 183.260,178.000 183.400 C 177.560 183.540,177.200 183.900,177.200 184.200 C 177.200 184.500,176.840 184.860,176.400 185.000 C 175.960 185.140,175.600 185.468,175.600 185.731 C 175.600 185.993,175.240 186.432,174.800 186.707 C 174.360 186.982,174.000 187.448,174.000 187.742 C 174.000 188.037,173.640 188.693,173.200 189.200 C 172.760 189.707,172.400 190.427,172.400 190.799 C 172.400 191.171,172.040 191.802,171.600 192.200 C 171.089 192.663,170.800 193.432,170.800 194.330 C 170.800 195.104,170.500 196.068,170.134 196.473 C 169.161 197.548,169.171 207.663,170.146 208.741 C 170.506 209.138,170.800 209.960,170.800 210.568 C 170.800 211.176,171.160 212.131,171.600 212.691 C 172.040 213.250,172.400 213.970,172.400 214.291 C 172.400 214.611,172.760 215.331,173.200 215.891 C 173.640 216.450,174.000 217.147,174.000 217.440 C 174.000 217.732,174.360 218.165,174.800 218.400 C 175.240 218.635,175.600 219.092,175.600 219.414 C 175.600 219.736,175.780 220.000,176.000 220.000 C 176.219 220.000,177.117 220.675,177.995 221.500 C 180.541 223.893,180.901 224.173,182.082 224.681 C 182.697 224.945,183.200 225.350,183.200 225.581 C 183.200 225.811,183.802 226.000,184.538 226.000 C 185.368 226.000,186.151 226.304,186.600 226.800 C 187.277 227.548,187.832 227.600,195.079 227.600 C 202.281 227.600,202.895 227.543,203.692 226.800 C 204.180 226.345,205.104 226.000,205.833 226.000 C 206.569 226.000,207.207 225.759,207.332 225.434 C 207.547 224.874,208.772 224.079,210.900 223.120 C 211.505 222.848,212.000 222.460,212.000 222.259 C 212.000 222.058,212.923 220.985,214.050 219.875 C 215.178 218.765,216.351 217.259,216.656 216.528 C 216.961 215.798,217.380 215.200,217.587 215.200 C 217.794 215.200,218.082 214.567,218.227 213.794 C 218.372 213.021,218.746 212.246,219.057 212.072 C 219.437 211.859,219.725 210.588,219.934 208.203 C 220.123 206.058,220.435 204.588,220.723 204.492 C 221.382 204.273,221.323 201.366,220.638 200.286 C 220.328 199.799,219.951 197.927,219.799 196.128 C 219.620 194.016,219.336 192.784,218.999 192.655 C 218.711 192.544,218.351 191.890,218.200 191.200 C 218.049 190.510,217.672 189.849,217.362 189.730 C 217.053 189.612,216.800 189.186,216.800 188.784 C 216.800 188.383,216.440 187.940,216.000 187.800 C 215.560 187.660,215.200 187.288,215.200 186.973 C 215.200 186.482,213.919 185.122,211.139 182.663 C 210.776 182.342,210.101 181.959,209.639 181.813 C 209.178 181.666,208.800 181.288,208.800 180.973 C 208.800 180.658,208.464 180.400,208.054 180.400 C 207.644 180.400,206.850 180.040,206.291 179.600 C 205.731 179.160,204.741 178.800,204.091 178.800 C 203.440 178.800,202.450 178.440,201.891 178.000 C 200.574 176.964,189.654 176.771,188.826 177.769 M249.200 180.976 C 249.200 181.513,249.347 182.044,249.528 182.155 C 249.708 182.267,249.777 181.827,249.682 181.179 C 249.472 179.749,249.200 179.635,249.200 180.976 M274.800 210.687 C 274.800 210.943,274.980 211.264,275.200 211.400 C 275.420 211.536,275.630 212.402,275.667 213.324 L 275.734 215.000 275.891 213.502 C 275.989 212.566,275.814 211.669,275.424 211.113 C 275.081 210.623,274.800 210.431,274.800 210.687 M276.151 220.400 C 276.151 222.930,276.216 223.965,276.296 222.700 C 276.375 221.435,276.375 219.365,276.296 218.100 C 276.216 216.835,276.151 217.870,276.151 220.400 M275.515 226.610 C 275.392 227.045,275.169 227.760,275.020 228.200 C 274.871 228.640,275.042 228.494,275.400 227.876 C 275.758 227.258,275.981 226.542,275.895 226.286 C 275.810 226.030,275.639 226.176,275.515 226.610 M109.292 237.000 C 109.242 241.057,109.363 242.420,109.842 243.200 C 110.192 243.770,110.319 243.856,110.138 243.400 C 109.963 242.960,109.716 240.170,109.588 237.200 L 109.356 231.800 109.292 237.000 M223.800 238.800 C 223.140 239.237,222.780 239.592,223.000 239.588 C 223.401 239.582,225.576 238.023,225.200 238.012 C 225.090 238.008,224.460 238.363,223.800 238.800 M52.100 241.487 C 52.705 241.578,53.695 241.578,54.300 241.487 C 54.905 241.395,54.410 241.320,53.200 241.320 C 51.990 241.320,51.495 241.395,52.100 241.487 M74.400 241.460 C 77.682 241.753,82.312 241.777,82.140 241.500 C 82.037 241.335,79.938 241.230,77.476 241.267 C 75.014 241.304,73.630 241.391,74.400 241.460 M57.597 246.082 C 57.489 248.217,57.542 249.820,57.716 249.645 C 57.891 249.470,57.979 247.723,57.914 245.764 L 57.794 242.200 57.597 246.082 M213.800 243.450 L 212.600 244.034 213.800 243.789 C 214.460 243.654,215.171 243.376,215.380 243.172 C 215.931 242.633,215.219 242.758,213.800 243.450 M260.600 252.268 C 259.720 253.057,259.360 253.516,259.800 253.288 C 260.541 252.904,262.751 250.779,262.370 250.817 C 262.276 250.826,261.480 251.479,260.600 252.268 M174.066 252.751 C 173.754 252.949,174.418 253.016,175.666 252.913 C 178.597 252.671,178.995 252.468,176.600 252.438 C 175.500 252.424,174.360 252.565,174.066 252.751 M170.505 253.487 C 171.114 253.579,172.014 253.577,172.505 253.482 C 172.997 253.387,172.500 253.311,171.400 253.314 C 170.300 253.317,169.897 253.395,170.505 253.487 M165.100 253.882 C 165.595 253.978,166.405 253.978,166.900 253.882 C 167.395 253.787,166.990 253.709,166.000 253.709 C 165.010 253.709,164.605 253.787,165.100 253.882 M71.755 255.235 C 69.887 256.718,69.422 257.223,70.800 256.272 C 71.350 255.892,72.340 255.226,73.000 254.792 C 73.660 254.358,74.000 254.002,73.755 254.001 C 73.510 254.001,72.610 254.556,71.755 255.235 M123.568 255.700 C 124.041 256.325,124.943 256.400,132.000 256.400 C 139.057 256.400,139.959 256.325,140.432 255.700 C 140.882 255.104,140.878 255.075,140.401 255.500 C 139.993 255.864,137.706 256.000,132.000 256.000 C 126.294 256.000,124.007 255.864,123.599 255.500 C 123.122 255.075,123.118 255.104,123.568 255.700 M67.106 257.011 C 66.284 257.775,65.754 258.400,65.927 258.400 C 66.101 258.400,66.854 257.770,67.600 257.000 C 69.341 255.203,69.043 255.210,67.106 257.011 M56.900 259.894 C 57.945 259.976,59.655 259.976,60.700 259.894 C 61.745 259.812,60.890 259.744,58.800 259.744 C 56.710 259.744,55.855 259.812,56.900 259.894 M99.771 272.000 C 99.771 276.950,99.828 278.975,99.899 276.500 C 99.969 274.025,99.969 269.975,99.899 267.500 C 99.828 265.025,99.771 267.050,99.771 272.000 M65.867 264.667 C 65.720 264.813,65.600 266.307,65.600 267.987 C 65.600 269.864,65.407 271.256,65.100 271.601 C 64.678 272.074,64.704 272.083,65.271 271.656 C 65.788 271.266,66.637 264.386,66.167 264.399 C 66.148 264.400,66.013 264.520,65.867 264.667 M78.568 272.600 C 78.568 277.000,78.626 278.855,78.698 276.721 C 78.770 274.588,78.770 270.988,78.699 268.721 C 78.627 266.455,78.568 268.200,78.568 272.600 M54.698 271.814 C 55.386 272.295,56.501 272.400,59.887 272.299 L 64.200 272.170 59.724 272.085 C 57.262 272.038,55.136 271.820,55.000 271.600 C 54.864 271.380,54.543 271.200,54.287 271.200 C 54.031 271.200,54.216 271.476,54.698 271.814 M199.656 280.059 C 198.917 280.272,198.387 280.520,198.479 280.612 C 198.681 280.814,201.600 280.037,201.600 279.781 C 201.600 279.546,201.282 279.591,199.656 280.059 M84.700 282.699 C 87.175 282.769,91.225 282.769,93.700 282.699 C 96.175 282.628,94.150 282.571,89.200 282.571 C 84.250 282.571,82.225 282.628,84.700 282.699 M185.100 282.682 C 185.595 282.778,186.405 282.778,186.900 282.682 C 187.395 282.587,186.990 282.509,186.000 282.509 C 185.010 282.509,184.605 282.587,185.100 282.682 M181.400 283.200 C 180.293 283.482,180.277 283.509,181.200 283.547 C 181.750 283.569,182.470 283.413,182.800 283.200 C 183.481 282.760,183.129 282.760,181.400 283.200 M122.433 284.543 C 122.525 284.622,123.320 284.797,124.200 284.932 C 125.290 285.099,125.609 285.055,125.200 284.795 C 124.653 284.446,122.045 284.209,122.433 284.543 M158.936 284.707 C 158.681 284.870,159.941 284.950,161.736 284.886 C 166.765 284.707,167.397 284.525,163.200 284.466 C 161.110 284.436,159.191 284.545,158.936 284.707 " stroke="none" fill="#5a4fcf" fill-rule="evenodd"></path><path id="path2" d="M223.738 102.694 C 220.784 102.791,219.543 102.987,219.189 103.414 C 218.799 103.883,217.415 104.004,212.251 104.018 C 206.351 104.034,202.565 104.501,201.753 105.314 C 201.595 105.471,200.251 105.600,198.766 105.600 C 195.711 105.600,194.800 105.839,194.800 106.643 C 194.800 107.082,193.952 107.200,190.800 107.200 C 187.333 107.200,186.693 107.307,186.000 108.000 C 185.398 108.602,184.667 108.800,183.049 108.800 C 181.700 108.800,180.726 109.007,180.436 109.357 C 180.182 109.663,179.125 110.039,178.087 110.192 C 177.049 110.346,175.930 110.701,175.600 110.982 C 175.270 111.263,173.844 111.608,172.430 111.748 C 171.017 111.888,169.563 112.272,169.199 112.601 C 168.835 112.931,168.170 113.200,167.722 113.200 C 167.274 113.200,166.450 113.560,165.891 114.000 C 165.331 114.440,164.272 114.802,163.537 114.805 C 161.602 114.813,160.400 115.212,160.400 115.847 C 160.400 116.207,159.935 116.400,159.062 116.400 C 158.232 116.400,157.449 116.704,157.000 117.200 C 156.602 117.640,155.837 118.000,155.301 118.000 C 154.662 118.000,154.253 118.276,154.116 118.800 C 153.961 119.392,153.570 119.600,152.615 119.600 C 151.832 119.600,151.039 119.915,150.600 120.400 C 150.202 120.840,149.482 121.200,149.000 121.200 C 148.518 121.200,147.798 121.560,147.400 122.000 C 147.002 122.440,146.282 122.800,145.800 122.800 C 145.318 122.800,144.598 123.160,144.200 123.600 C 143.802 124.040,143.054 124.400,142.538 124.400 C 142.022 124.400,141.600 124.559,141.600 124.754 C 141.600 124.949,140.970 125.408,140.200 125.773 C 139.430 126.139,138.800 126.609,138.800 126.819 C 138.800 127.028,138.600 127.200,138.356 127.200 C 137.738 127.200,134.000 129.660,134.000 130.067 C 134.000 130.250,133.740 130.400,133.423 130.400 C 133.105 130.400,132.610 130.734,132.323 131.143 C 132.035 131.551,131.440 132.001,131.000 132.142 C 130.560 132.283,129.544 133.002,128.742 133.740 C 127.940 134.478,126.995 135.193,126.642 135.329 C 126.289 135.464,126.000 135.851,126.000 136.187 C 126.000 136.524,125.713 136.800,125.363 136.800 C 125.012 136.800,124.635 137.143,124.526 137.563 C 124.416 137.983,123.983 138.416,123.563 138.526 C 123.143 138.635,122.800 138.991,122.800 139.316 C 122.800 139.641,122.440 140.001,122.000 140.116 C 121.560 140.231,121.200 140.591,121.200 140.916 C 121.200 141.241,120.840 141.601,120.400 141.716 C 119.960 141.831,119.600 142.212,119.600 142.563 C 119.600 142.913,119.340 143.200,119.022 143.200 C 118.486 143.200,118.080 143.766,116.724 146.400 C 116.441 146.950,115.975 147.583,115.688 147.807 C 115.121 148.249,114.370 149.465,113.405 151.500 C 113.066 152.215,112.632 152.800,112.439 152.800 C 112.247 152.800,111.974 153.413,111.834 154.161 C 111.693 154.910,111.339 155.614,111.047 155.727 C 110.755 155.839,110.411 156.578,110.282 157.369 C 110.154 158.161,109.768 159.089,109.424 159.433 C 108.996 159.861,108.800 160.818,108.800 162.484 C 108.800 164.334,108.633 165.034,108.100 165.424 C 107.035 166.204,107.035 185.684,108.100 187.189 C 108.568 187.850,108.800 188.929,108.800 190.440 C 108.800 191.884,109.001 192.869,109.357 193.164 C 109.663 193.418,110.035 194.440,110.185 195.436 C 110.334 196.432,110.709 197.343,111.017 197.462 C 111.326 197.580,111.691 198.277,111.828 199.011 C 111.966 199.744,112.314 200.435,112.602 200.545 C 112.889 200.656,113.246 201.300,113.395 201.976 C 113.543 202.653,114.010 203.391,114.433 203.617 C 114.855 203.843,115.200 204.292,115.200 204.614 C 115.200 204.936,115.450 205.200,115.755 205.200 C 116.072 205.200,116.422 205.793,116.569 206.577 C 116.733 207.450,117.116 208.046,117.614 208.204 C 118.046 208.342,118.400 208.712,118.400 209.027 C 118.400 209.342,118.584 209.600,118.810 209.600 C 119.035 209.600,119.391 210.050,119.600 210.600 C 119.809 211.150,120.234 211.600,120.543 211.600 C 120.853 211.600,121.201 211.960,121.316 212.400 C 121.431 212.840,121.791 213.200,122.116 213.200 C 122.441 213.200,122.801 213.560,122.916 214.000 C 123.031 214.440,123.412 214.800,123.763 214.800 C 124.113 214.800,124.400 215.076,124.400 215.413 C 124.400 215.749,124.701 216.141,125.069 216.282 C 125.438 216.423,126.428 217.228,127.269 218.069 C 128.111 218.911,129.030 219.600,129.311 219.600 C 129.592 219.600,130.126 219.915,130.497 220.300 C 131.956 221.813,132.685 222.400,133.107 222.400 C 133.348 222.400,133.654 222.741,133.787 223.158 C 133.936 223.628,134.555 224.015,135.414 224.176 C 136.241 224.331,136.800 224.671,136.800 225.018 C 136.800 225.338,137.148 225.600,137.573 225.600 C 137.998 225.600,138.460 225.960,138.600 226.400 C 138.836 227.144,139.205 227.200,143.864 227.200 C 148.538 227.200,148.889 227.146,149.084 226.400 C 149.200 225.957,149.630 225.600,150.047 225.600 C 150.518 225.600,150.800 225.318,150.800 224.847 C 150.800 224.430,151.157 224.000,151.600 223.884 C 152.252 223.714,152.400 223.338,152.400 221.861 C 152.400 220.863,152.580 219.936,152.800 219.800 C 153.020 219.664,153.200 219.124,153.200 218.600 C 153.200 218.076,153.020 217.536,152.800 217.400 C 152.580 217.264,152.400 216.450,152.400 215.592 C 152.400 214.586,152.133 213.777,151.650 213.316 C 151.140 212.830,150.839 211.845,150.713 210.251 C 150.583 208.622,150.323 207.789,149.863 207.531 C 148.756 206.912,148.877 191.137,150.000 189.709 C 150.440 189.150,150.800 188.250,150.800 187.709 C 150.800 187.169,151.160 186.269,151.600 185.709 C 152.040 185.150,152.400 184.376,152.400 183.989 C 152.400 183.602,152.653 183.188,152.962 183.070 C 153.272 182.951,153.646 182.302,153.794 181.627 C 153.942 180.952,154.319 180.400,154.632 180.400 C 154.944 180.400,155.200 180.121,155.200 179.780 C 155.200 179.439,155.825 178.517,156.589 177.730 C 157.353 176.944,158.083 176.008,158.212 175.650 C 158.464 174.952,161.758 172.400,162.407 172.400 C 162.623 172.400,162.800 172.225,162.800 172.010 C 162.800 171.796,163.319 171.352,163.953 171.024 C 164.587 170.697,165.621 169.882,166.251 169.214 C 166.882 168.546,167.801 168.000,168.295 168.000 C 168.789 168.000,169.418 167.640,169.693 167.200 C 169.968 166.760,170.616 166.400,171.134 166.400 C 171.738 166.400,172.150 166.114,172.284 165.600 C 172.439 165.008,172.830 164.800,173.785 164.800 C 174.568 164.800,175.361 164.485,175.800 164.000 C 176.198 163.560,176.963 163.200,177.499 163.200 C 178.138 163.200,178.547 162.924,178.684 162.400 C 178.857 161.739,179.230 161.600,180.833 161.600 C 182.362 161.600,182.862 161.431,183.200 160.800 C 183.496 160.247,184.038 160.000,184.952 160.000 C 185.768 160.000,186.554 159.693,187.000 159.200 C 187.529 158.615,188.232 158.400,189.613 158.400 C 190.746 158.400,191.688 158.175,191.968 157.839 C 192.233 157.520,193.616 157.159,195.176 157.002 C 196.685 156.851,198.371 156.492,198.923 156.206 C 199.476 155.919,200.889 155.557,202.064 155.401 C 203.239 155.246,204.740 154.882,205.400 154.593 C 206.060 154.305,207.899 153.988,209.487 153.889 C 211.211 153.781,212.777 153.445,213.373 153.054 C 214.146 152.548,215.375 152.400,218.809 152.400 C 222.939 152.400,225.876 152.007,227.800 151.196 C 228.240 151.011,232.020 150.745,236.200 150.606 C 241.792 150.420,244.034 150.201,244.686 149.777 C 246.283 148.737,274.141 148.941,275.200 150.000 C 275.640 150.440,276.464 150.800,277.031 150.800 C 277.637 150.800,278.543 151.282,279.231 151.969 L 280.400 153.138 280.400 160.773 C 280.400 167.913,280.452 168.452,281.200 169.093 C 281.640 169.470,282.000 169.965,282.000 170.193 C 282.000 170.422,282.566 171.057,283.258 171.604 C 283.949 172.152,284.809 172.875,285.168 173.211 C 287.653 175.535,311.983 175.474,313.231 173.141 C 313.450 172.734,313.892 172.400,314.214 172.400 C 314.536 172.400,314.800 172.142,314.800 171.827 C 314.800 171.512,315.160 171.140,315.600 171.000 C 316.040 170.860,316.400 170.472,316.400 170.136 C 316.400 169.801,316.760 169.069,317.200 168.509 C 317.722 167.845,318.000 166.886,318.000 165.746 L 318.000 164.000 322.776 164.000 C 325.529 164.000,327.658 163.831,327.800 163.600 C 327.936 163.380,328.863 163.200,329.861 163.200 C 331.304 163.200,331.715 163.045,331.873 162.443 C 332.101 161.571,333.834 161.107,335.565 161.453 C 336.243 161.589,336.812 162.002,336.927 162.443 C 337.085 163.045,337.496 163.200,338.939 163.200 C 339.937 163.200,340.864 163.380,341.000 163.600 C 341.325 164.126,349.475 164.126,349.800 163.600 C 349.936 163.380,350.909 163.200,351.962 163.200 C 353.368 163.200,354.068 162.988,354.600 162.400 C 354.998 161.960,355.571 161.600,355.872 161.600 C 356.173 161.600,356.577 161.188,356.768 160.684 C 356.960 160.180,357.405 159.527,357.758 159.235 C 358.684 158.467,358.723 142.610,357.802 141.634 C 357.473 141.285,356.737 140.415,356.167 139.700 C 355.596 138.985,354.875 138.400,354.564 138.400 C 354.098 138.400,353.999 137.032,353.994 130.500 C 353.990 124.346,353.860 122.379,353.410 121.600 C 353.092 121.050,352.600 120.159,352.316 119.619 C 351.564 118.190,350.326 117.055,348.346 115.983 C 345.311 114.340,330.000 114.367,330.000 116.016 C 330.000 116.227,329.730 116.400,329.400 116.400 C 328.933 116.400,328.800 115.867,328.800 114.000 C 328.800 112.133,328.622 111.422,328.000 110.800 C 327.560 110.360,327.200 109.730,327.200 109.400 C 327.200 109.067,326.844 108.800,326.400 108.800 C 325.867 108.800,325.600 108.533,325.600 108.000 C 325.600 107.467,325.333 107.200,324.800 107.200 C 324.267 107.200,324.000 106.933,324.000 106.400 C 324.000 105.720,323.733 105.600,322.224 105.600 C 321.247 105.600,320.336 105.420,320.200 105.200 C 320.045 104.950,316.004 104.800,309.400 104.800 C 302.796 104.800,298.755 104.950,298.600 105.200 C 298.464 105.420,297.735 105.600,296.980 105.600 C 296.040 105.600,295.449 105.852,295.107 106.400 C 294.832 106.840,294.291 107.200,293.904 107.200 C 293.498 107.200,293.200 107.499,293.200 107.905 C 293.200 109.283,291.509 109.528,290.464 108.300 C 289.950 107.695,289.287 107.200,288.991 107.200 C 288.696 107.200,288.346 106.859,288.214 106.443 C 288.082 106.027,287.619 105.594,287.187 105.481 C 286.754 105.367,286.400 104.988,286.400 104.637 C 286.400 104.130,285.942 104.000,284.144 104.000 C 282.457 104.000,281.759 103.823,281.376 103.300 C 280.883 102.625,239.185 102.187,223.738 102.694 M280.400 111.783 C 281.390 112.200,282.695 112.993,283.300 113.545 L 284.400 114.550 284.400 123.173 C 284.400 132.184,285.214 136.918,287.023 138.419 C 287.340 138.682,287.600 139.107,287.600 139.363 C 287.600 140.000,291.484 143.638,293.200 144.609 C 294.374 145.272,295.603 145.432,300.818 145.600 C 310.050 145.897,309.779 145.512,309.540 157.984 C 309.357 167.489,310.165 166.789,299.400 166.762 C 292.517 166.744,291.232 166.643,290.200 166.039 L 289.000 165.337 288.792 157.968 C 288.596 150.995,288.528 150.492,287.532 148.585 C 286.563 146.729,283.257 143.600,282.266 143.600 C 282.044 143.600,281.579 143.350,281.231 143.045 C 278.603 140.733,238.746 140.841,223.000 143.202 C 221.460 143.433,218.220 143.884,215.800 144.205 C 207.964 145.242,202.478 146.281,197.557 147.659 C 196.103 148.067,194.483 148.404,193.957 148.409 C 193.431 148.414,192.215 148.774,191.256 149.209 C 190.297 149.644,189.051 150.000,188.486 150.000 C 187.328 150.000,181.905 151.792,180.634 152.595 C 180.175 152.885,179.213 153.244,178.496 153.393 C 177.211 153.661,175.173 154.492,174.000 155.226 C 173.670 155.433,172.950 155.781,172.400 156.001 C 171.850 156.220,171.130 156.569,170.800 156.777 C 170.470 156.985,168.869 157.840,167.242 158.677 C 163.119 160.800,162.426 161.210,160.271 162.800 C 156.946 165.254,151.822 169.616,151.439 170.320 C 151.235 170.694,150.468 171.625,149.734 172.388 C 149.000 173.152,148.400 173.988,148.400 174.246 C 148.400 174.503,148.122 174.821,147.782 174.952 C 147.441 175.082,146.622 176.317,145.960 177.695 C 145.298 179.073,144.598 180.470,144.403 180.800 C 139.756 188.679,139.277 203.288,143.264 215.536 C 144.373 218.944,143.922 219.358,141.125 217.498 C 133.600 212.496,124.682 204.227,123.520 201.175 C 123.367 200.771,122.909 200.109,122.504 199.704 C 116.049 193.249,113.420 170.140,118.146 161.400 C 118.503 160.740,118.796 160.016,118.798 159.791 C 118.799 159.566,119.430 158.425,120.200 157.256 C 120.970 156.087,121.600 154.982,121.600 154.801 C 121.600 154.620,122.287 153.601,123.127 152.536 C 123.967 151.471,124.831 150.282,125.047 149.892 C 125.918 148.326,132.429 142.140,136.000 139.487 C 138.090 137.934,140.430 136.186,141.200 135.601 C 141.970 135.017,143.950 133.778,145.600 132.848 C 147.250 131.918,148.870 130.986,149.200 130.777 C 149.530 130.569,150.250 130.208,150.800 129.976 C 152.499 129.258,158.875 126.035,159.350 125.653 C 159.598 125.455,160.430 125.164,161.200 125.007 C 161.970 124.850,162.960 124.502,163.400 124.235 C 163.840 123.967,165.460 123.344,167.000 122.849 C 168.540 122.355,170.160 121.787,170.600 121.587 C 171.040 121.386,173.200 120.674,175.400 120.004 C 177.600 119.334,180.480 118.429,181.800 117.993 C 183.120 117.557,184.795 117.200,185.522 117.200 C 186.249 117.200,187.599 116.864,188.522 116.453 C 189.445 116.041,191.522 115.589,193.138 115.446 C 194.754 115.304,196.464 114.980,196.938 114.726 C 197.412 114.472,198.970 114.121,200.400 113.945 C 201.830 113.770,203.990 113.452,205.200 113.239 C 209.756 112.438,215.704 111.884,226.800 111.228 C 238.366 110.545,278.443 110.959,280.400 111.783 M319.220 113.810 L 320.400 114.421 320.400 124.200 L 320.400 133.979 319.100 134.690 C 317.972 135.306,316.692 135.400,309.400 135.400 C 297.574 135.400,298.277 136.180,298.475 123.265 L 298.600 115.129 299.722 114.165 C 301.153 112.935,316.972 112.648,319.220 113.810 M345.079 124.665 C 346.076 126.186,346.326 132.847,345.463 134.910 L 344.841 136.400 341.610 136.400 C 333.238 136.400,329.200 140.174,329.200 148.000 C 329.200 154.890,328.501 155.600,321.714 155.600 C 315.742 155.600,315.614 155.457,315.606 148.776 C 315.598 142.372,315.506 142.495,320.425 142.329 C 327.953 142.075,332.380 137.118,332.394 128.926 C 332.397 127.125,332.576 125.190,332.790 124.626 L 333.180 123.600 338.781 123.600 L 344.382 123.600 345.079 124.665 M349.986 145.974 C 350.214 146.399,350.400 148.339,350.400 150.285 C 350.400 155.269,350.118 155.600,345.866 155.600 C 341.027 155.600,340.800 155.367,340.800 150.400 C 340.800 145.397,341.000 145.200,346.075 145.200 C 349.123 145.200,349.625 145.299,349.986 145.974 M192.580 167.564 C 192.371 167.765,190.520 167.990,188.468 168.064 C 185.479 168.173,184.633 168.339,184.223 168.900 C 183.906 169.335,183.184 169.600,182.318 169.600 C 181.432 169.600,180.660 169.892,180.200 170.400 C 179.802 170.840,179.082 171.200,178.600 171.200 C 178.118 171.200,177.398 171.560,177.000 172.000 C 176.602 172.440,175.927 172.800,175.501 172.800 C 175.062 172.800,174.634 173.147,174.516 173.600 C 174.401 174.040,174.060 174.400,173.758 174.400 C 172.981 174.400,171.591 175.637,171.173 176.700 C 170.979 177.195,170.545 177.600,170.210 177.600 C 169.874 177.600,169.600 177.870,169.600 178.200 C 169.600 178.530,169.313 178.800,168.963 178.800 C 168.612 178.800,168.231 179.160,168.116 179.600 C 168.001 180.040,167.653 180.400,167.343 180.400 C 167.034 180.400,166.609 180.850,166.400 181.400 C 166.191 181.950,165.853 182.400,165.649 182.400 C 165.445 182.400,165.075 182.895,164.827 183.500 C 164.578 184.105,164.113 185.050,163.793 185.600 C 163.474 186.150,163.209 186.940,163.206 187.356 C 163.203 187.772,162.926 188.312,162.591 188.557 C 162.256 188.802,161.871 189.722,161.737 190.601 C 161.602 191.481,161.201 192.534,160.846 192.942 C 159.870 194.063,159.879 211.154,160.856 212.258 C 161.218 212.666,161.638 213.765,161.792 214.700 C 161.945 215.635,162.228 216.400,162.420 216.400 C 162.612 216.400,162.958 217.101,163.189 217.959 C 163.420 218.816,163.877 219.621,164.204 219.746 C 164.532 219.872,164.800 220.447,164.800 221.025 C 164.800 221.738,165.056 222.142,165.600 222.284 C 166.040 222.399,166.400 222.789,166.400 223.150 C 166.400 223.512,166.735 224.017,167.144 224.272 C 167.553 224.527,167.998 225.291,168.134 225.968 C 168.276 226.682,168.630 227.200,168.976 227.200 C 169.304 227.200,169.765 227.560,170.000 228.000 C 170.235 228.440,170.744 228.800,171.131 228.800 C 171.517 228.800,172.495 229.520,173.304 230.400 C 174.113 231.280,175.051 232.000,175.388 232.000 C 175.724 232.000,176.000 232.251,176.000 232.557 C 176.000 233.202,176.852 233.600,178.233 233.600 C 178.793 233.600,179.200 233.835,179.200 234.157 C 179.200 234.781,180.045 235.200,181.301 235.200 C 181.761 235.200,182.452 235.485,182.837 235.834 C 183.223 236.183,184.317 236.559,185.269 236.671 C 186.221 236.783,187.567 237.127,188.260 237.437 C 190.120 238.268,200.905 238.238,201.600 237.400 C 201.874 237.070,202.481 236.814,202.949 236.832 C 203.417 236.849,203.575 236.954,203.300 237.065 C 203.025 237.176,202.800 237.522,202.800 237.833 C 202.800 238.264,202.176 238.400,200.196 238.400 C 198.087 238.400,197.462 238.552,196.907 239.200 C 196.423 239.766,195.727 240.000,194.530 240.000 C 192.852 240.000,190.800 240.667,190.800 241.212 C 190.800 241.368,188.920 241.579,186.621 241.681 C 184.323 241.783,182.193 242.074,181.888 242.327 C 181.583 242.580,179.405 242.955,177.049 243.160 C 174.692 243.364,172.547 243.703,172.282 243.913 C 172.017 244.123,169.462 244.419,166.604 244.572 C 163.112 244.758,161.210 245.028,160.804 245.396 C 160.338 245.818,157.650 245.995,149.000 246.174 C 142.840 246.301,135.640 246.510,133.000 246.638 C 128.021 246.880,123.153 246.325,122.000 245.384 C 121.670 245.115,120.995 244.771,120.500 244.620 C 119.832 244.417,119.535 243.936,119.345 242.746 C 119.204 241.866,118.844 240.901,118.545 240.602 C 118.127 240.185,118.000 238.450,118.000 233.191 C 118.000 226.662,117.961 226.315,117.200 226.116 C 116.757 226.000,116.400 225.570,116.400 225.153 C 116.400 224.667,116.117 224.400,115.600 224.400 C 115.067 224.400,114.800 224.133,114.800 223.600 C 114.800 223.076,114.533 222.800,114.027 222.800 C 113.602 222.800,113.140 222.440,113.000 222.000 C 112.753 221.222,112.395 221.200,100.000 221.200 C 87.605 221.200,87.247 221.222,87.000 222.000 C 86.860 222.440,86.398 222.800,85.973 222.800 C 85.467 222.800,85.200 223.076,85.200 223.600 C 85.200 224.133,84.933 224.400,84.400 224.400 C 83.883 224.400,83.600 224.667,83.600 225.153 C 83.600 225.570,83.243 226.000,82.800 226.116 C 82.272 226.254,82.000 226.662,82.000 227.314 C 82.000 227.857,81.740 228.518,81.422 228.781 C 81.105 229.045,80.790 229.922,80.722 230.730 L 80.600 232.200 74.675 232.200 C 69.448 232.200,68.703 232.283,68.355 232.900 C 68.119 233.319,67.487 233.600,66.784 233.600 C 66.071 233.600,65.424 233.892,65.144 234.341 C 64.694 235.062,64.662 235.062,63.941 234.341 C 63.533 233.933,62.719 233.600,62.131 233.600 C 61.544 233.600,60.716 233.285,60.291 232.900 C 58.831 231.577,46.400 231.682,46.400 233.018 C 46.400 233.430,45.933 233.600,44.800 233.600 C 43.467 233.600,43.200 233.733,43.200 234.400 C 43.200 234.933,42.933 235.200,42.400 235.200 C 41.900 235.200,41.600 235.467,41.600 235.911 C 41.600 236.302,41.240 236.930,40.800 237.307 C 39.561 238.368,39.561 253.160,40.800 253.484 C 41.240 253.599,41.600 254.026,41.600 254.432 C 41.600 254.839,42.350 255.871,43.267 256.726 L 44.933 258.280 44.838 265.483 C 44.757 271.584,44.839 272.782,45.371 273.314 C 45.717 273.660,46.006 274.541,46.013 275.271 C 46.026 276.715,47.536 278.800,48.567 278.800 C 48.900 278.800,49.365 279.160,49.600 279.600 C 49.916 280.190,50.438 280.400,51.590 280.400 C 52.450 280.400,53.264 280.580,53.400 280.800 C 53.732 281.337,66.668 281.337,67.000 280.800 C 67.773 279.550,69.600 280.393,69.600 282.000 C 69.600 283.067,69.867 283.867,70.400 284.400 C 70.840 284.840,71.200 285.562,71.200 286.004 C 71.200 286.446,71.560 287.116,72.000 287.493 C 72.440 287.870,72.800 288.412,72.800 288.699 C 72.800 288.985,73.295 289.408,73.899 289.638 C 74.504 289.868,75.333 290.358,75.741 290.728 C 76.871 291.750,101.859 291.753,102.431 290.731 C 102.636 290.363,103.325 289.948,103.962 289.808 C 104.634 289.661,105.204 289.229,105.322 288.777 C 105.434 288.350,105.812 288.000,106.163 288.000 C 106.513 288.000,106.806 287.775,106.814 287.500 C 106.822 287.225,107.271 286.460,107.812 285.800 L 108.796 284.600 108.798 286.300 C 108.800 287.588,108.954 288.000,109.437 288.000 C 109.788 288.000,110.169 288.360,110.284 288.800 C 110.399 289.240,110.792 289.600,111.158 289.600 C 111.523 289.600,112.130 289.960,112.507 290.400 C 112.884 290.840,113.436 291.200,113.735 291.200 C 114.033 291.200,114.693 291.560,115.200 292.000 C 115.872 292.583,116.697 292.800,118.238 292.800 C 119.401 292.800,120.464 292.980,120.600 293.200 C 120.736 293.420,121.276 293.600,121.800 293.600 C 122.324 293.600,122.864 293.780,123.000 294.000 C 123.159 294.258,129.996 294.400,142.200 294.400 C 154.404 294.400,161.241 294.258,161.400 294.000 C 161.536 293.780,163.156 293.600,165.000 293.600 C 166.844 293.600,168.464 293.420,168.600 293.200 C 168.750 292.958,171.640 292.799,175.924 292.798 C 181.152 292.796,183.276 292.651,184.056 292.244 C 184.641 291.939,187.136 291.567,189.656 291.409 C 192.392 291.238,194.550 290.903,195.079 290.567 C 195.562 290.261,197.272 289.894,198.879 289.752 C 200.485 289.610,202.070 289.267,202.400 288.990 C 202.730 288.712,204.311 288.357,205.913 288.201 C 207.516 288.044,209.048 287.695,209.319 287.424 C 209.590 287.153,210.862 286.823,212.147 286.690 C 213.432 286.558,214.793 286.168,215.173 285.825 C 215.591 285.446,216.599 285.200,217.731 285.200 C 219.020 285.200,219.831 284.969,220.344 284.456 C 220.799 284.001,221.886 283.636,223.148 283.515 C 224.281 283.406,225.535 283.020,225.936 282.658 C 226.336 282.296,227.322 282.000,228.128 282.000 C 229.160 282.000,229.741 281.763,230.093 281.200 C 230.368 280.760,230.894 280.400,231.264 280.400 C 232.366 280.400,233.200 279.951,233.200 279.357 C 233.200 278.978,233.690 278.800,234.738 278.800 C 235.768 278.800,236.515 278.536,237.000 278.000 C 237.398 277.560,238.118 277.200,238.600 277.200 C 239.082 277.200,239.802 276.840,240.200 276.400 C 240.611 275.946,241.432 275.600,242.099 275.600 C 242.745 275.600,243.731 275.240,244.291 274.800 C 244.850 274.360,245.642 274.000,246.051 274.000 C 246.459 274.000,247.018 273.640,247.293 273.200 C 247.568 272.760,248.109 272.400,248.496 272.400 C 248.883 272.400,249.200 272.234,249.200 272.031 C 249.200 271.828,249.843 271.450,250.628 271.191 C 251.413 270.932,252.153 270.468,252.271 270.160 C 252.389 269.852,252.712 269.600,252.989 269.600 C 253.266 269.600,253.950 269.240,254.509 268.800 C 255.069 268.360,255.769 268.000,256.067 268.000 C 256.364 268.000,256.832 267.640,257.107 267.200 C 257.382 266.760,257.882 266.400,258.219 266.400 C 258.556 266.400,259.558 265.680,260.447 264.800 C 261.336 263.920,262.319 263.200,262.632 263.200 C 262.944 263.200,263.200 262.840,263.200 262.400 C 263.200 261.882,263.467 261.600,263.957 261.600 C 264.374 261.600,264.821 261.321,264.952 260.981 C 265.083 260.641,265.732 260.173,266.395 259.942 C 267.058 259.711,267.600 259.281,267.600 258.988 C 267.600 258.694,267.960 258.340,268.400 258.200 C 268.840 258.060,269.200 257.700,269.200 257.400 C 269.200 257.100,269.560 256.740,270.000 256.600 C 270.440 256.460,270.800 256.088,270.800 255.773 C 270.800 255.458,271.160 254.840,271.600 254.400 C 272.040 253.960,272.402 253.465,272.404 253.300 C 272.406 253.135,273.124 252.370,274.000 251.600 C 274.876 250.830,275.594 249.981,275.596 249.714 C 275.598 249.447,275.960 249.035,276.400 248.800 C 276.840 248.565,277.200 248.046,277.200 247.648 C 277.200 247.250,277.560 246.598,278.000 246.200 C 278.496 245.751,278.800 244.968,278.800 244.138 C 278.800 243.067,278.959 242.800,279.600 242.800 C 280.075 242.800,280.400 242.533,280.400 242.144 C 280.400 241.783,280.688 241.277,281.041 241.020 C 281.405 240.754,281.775 239.717,281.899 238.617 C 282.024 237.512,282.435 236.365,282.859 235.941 C 283.429 235.371,283.600 234.598,283.600 232.584 C 283.600 230.545,283.787 229.714,284.449 228.819 C 285.577 227.294,285.476 210.283,284.334 209.449 C 283.888 209.122,283.652 208.121,283.535 206.056 C 283.409 203.824,283.207 203.036,282.685 202.744 C 282.254 202.503,282.000 201.870,282.000 201.042 C 282.000 200.232,281.692 199.445,281.200 199.000 C 280.760 198.602,280.400 197.925,280.400 197.496 C 280.400 196.793,279.544 195.470,277.815 193.500 C 277.477 193.115,277.200 192.570,277.200 192.288 C 277.200 192.007,276.840 191.517,276.400 191.200 C 275.960 190.883,275.600 190.196,275.600 189.674 C 275.600 189.062,275.316 188.651,274.800 188.516 C 274.357 188.400,274.000 187.970,274.000 187.553 C 274.000 187.139,273.742 186.800,273.427 186.800 C 273.112 186.800,272.740 186.440,272.600 186.000 C 272.460 185.560,272.088 185.200,271.773 185.200 C 271.458 185.200,271.200 184.974,271.200 184.699 C 271.200 184.423,269.535 182.612,267.500 180.675 C 262.556 175.967,262.594 176.000,262.113 176.000 C 261.882 176.000,261.599 175.640,261.484 175.200 C 261.349 174.684,260.938 174.400,260.326 174.400 C 259.804 174.400,259.117 174.040,258.800 173.600 C 258.483 173.160,257.924 172.800,257.558 172.800 C 257.193 172.800,256.799 172.440,256.684 172.000 C 256.566 171.547,256.138 171.200,255.699 171.200 C 255.273 171.200,254.598 170.840,254.200 170.400 C 253.802 169.960,253.082 169.600,252.600 169.600 C 252.118 169.600,251.398 169.240,251.000 168.800 C 249.804 167.479,243.200 167.684,243.200 169.043 C 243.200 169.349,242.922 169.600,242.582 169.600 C 241.826 169.600,240.000 171.363,240.000 172.093 C 240.000 172.384,239.640 172.930,239.200 173.307 C 238.542 173.871,238.400 174.487,238.400 176.782 C 238.400 179.162,238.517 179.635,239.200 180.000 C 239.753 180.296,240.000 180.838,240.000 181.752 C 240.000 182.568,240.307 183.354,240.800 183.800 C 241.419 184.360,241.600 185.032,241.600 186.773 C 241.600 188.271,241.834 189.352,242.300 190.011 C 243.342 191.483,243.342 203.714,242.300 205.304 C 241.915 205.891,241.600 206.980,241.600 207.724 C 241.600 208.568,241.299 209.348,240.800 209.800 C 240.360 210.198,240.000 210.918,240.000 211.400 C 240.000 211.882,239.640 212.602,239.200 213.000 C 238.760 213.398,238.400 214.056,238.400 214.462 C 238.400 214.868,238.130 215.200,237.800 215.200 C 237.470 215.200,237.200 215.351,237.200 215.537 C 237.200 215.871,236.221 217.142,234.500 219.043 C 234.005 219.589,233.600 220.298,233.600 220.618 C 233.600 220.938,233.313 221.200,232.963 221.200 C 232.612 221.200,232.231 221.560,232.116 222.000 C 232.001 222.440,231.641 222.800,231.316 222.800 C 230.991 222.800,230.631 223.160,230.516 223.600 C 230.400 224.045,229.970 224.400,229.549 224.400 C 229.133 224.400,228.484 224.760,228.107 225.200 C 227.730 225.640,227.199 226.000,226.925 226.000 C 226.652 226.000,226.235 226.360,226.000 226.800 C 225.765 227.240,225.308 227.600,224.986 227.600 C 224.664 227.600,224.400 227.870,224.400 228.200 C 224.400 228.594,224.006 228.800,223.254 228.800 C 222.624 228.800,221.679 229.122,221.154 229.516 C 220.629 229.910,219.705 230.446,219.100 230.707 C 218.495 230.969,218.000 231.367,218.000 231.591 C 218.000 231.816,217.548 232.000,216.996 232.000 C 216.444 232.000,215.684 232.360,215.307 232.800 C 214.636 233.584,213.200 233.911,213.200 233.280 C 213.200 232.652,214.176 232.000,215.117 232.000 C 215.738 232.000,216.148 231.719,216.284 231.200 C 216.399 230.760,216.759 230.400,217.084 230.400 C 217.409 230.400,217.769 230.040,217.884 229.600 C 217.999 229.160,218.359 228.800,218.684 228.800 C 219.009 228.800,219.369 228.440,219.484 228.000 C 219.599 227.560,219.959 227.200,220.284 227.200 C 220.609 227.200,220.969 226.840,221.084 226.400 C 221.199 225.960,221.521 225.600,221.800 225.600 C 222.079 225.600,222.401 225.240,222.516 224.800 C 222.631 224.360,223.012 224.000,223.363 224.000 C 223.713 224.000,224.000 223.758,224.000 223.462 C 224.000 223.166,224.360 222.598,224.800 222.200 C 225.240 221.802,225.600 220.985,225.600 220.385 C 225.600 219.630,225.847 219.229,226.400 219.084 C 227.013 218.924,227.200 218.538,227.200 217.437 C 227.200 216.475,227.384 216.000,227.757 216.000 C 228.501 216.000,228.800 215.112,228.800 212.899 C 228.800 211.712,229.047 210.790,229.500 210.290 C 230.108 209.617,230.200 208.635,230.200 202.800 C 230.200 196.965,230.108 195.983,229.500 195.310 C 229.007 194.765,228.800 193.868,228.800 192.269 C 228.800 190.533,228.612 189.812,228.000 189.200 C 227.560 188.760,227.200 188.055,227.200 187.633 C 227.200 186.441,226.769 185.600,226.157 185.600 C 225.851 185.600,225.600 185.280,225.600 184.889 C 225.600 184.498,225.240 183.870,224.800 183.493 C 224.360 183.116,224.000 182.452,224.000 182.018 C 224.000 181.584,223.640 181.035,223.200 180.800 C 222.760 180.565,222.400 180.120,222.400 179.813 C 222.400 179.505,222.040 179.140,221.600 179.000 C 221.160 178.860,220.800 178.488,220.800 178.173 C 220.800 177.858,220.542 177.600,220.227 177.600 C 219.912 177.600,219.540 177.240,219.400 176.800 C 219.260 176.360,218.900 176.000,218.600 176.000 C 218.300 176.000,217.940 175.640,217.800 175.200 C 217.638 174.690,217.195 174.400,216.576 174.400 C 216.040 174.400,215.384 174.043,215.107 173.600 C 214.832 173.160,214.312 172.800,213.950 172.800 C 213.589 172.800,213.199 172.440,213.084 172.000 C 212.927 171.401,212.538 171.200,211.534 171.200 C 210.626 171.200,210.031 170.942,209.693 170.400 C 209.348 169.848,208.760 169.600,207.797 169.600 C 206.933 169.600,206.094 169.294,205.600 168.800 C 204.934 168.134,204.267 168.000,201.624 168.000 C 199.877 168.000,198.336 167.820,198.200 167.600 C 197.891 167.100,193.096 167.069,192.580 167.564 M200.200 176.353 C 204.648 177.056,209.739 179.629,213.680 183.166 C 215.093 184.434,218.800 189.279,218.800 189.857 C 218.800 189.978,219.133 190.554,219.539 191.138 C 220.244 192.152,220.737 193.935,221.654 198.800 C 223.192 206.955,220.111 215.699,213.429 222.142 C 211.096 224.392,210.112 225.059,206.046 227.149 C 195.125 232.761,180.104 228.530,173.011 217.843 C 171.396 215.410,168.800 209.489,168.800 208.239 C 168.800 207.804,168.588 206.422,168.329 205.167 C 167.771 202.465,168.444 196.877,169.660 194.122 C 170.067 193.199,170.400 192.317,170.400 192.162 C 170.400 187.213,182.541 177.208,189.365 176.533 C 190.704 176.401,192.070 176.132,192.400 175.936 C 193.038 175.556,196.248 175.728,200.200 176.353 M251.139 178.500 C 256.350 181.673,265.495 190.044,268.519 194.408 C 272.776 200.552,274.946 204.884,275.427 208.200 C 275.587 209.300,275.991 210.619,276.325 211.131 C 277.258 212.561,277.266 226.039,276.335 228.000 C 275.969 228.770,275.558 230.120,275.421 231.000 C 274.942 234.079,273.040 238.475,271.255 240.631 C 271.058 240.868,270.763 241.487,270.598 242.007 C 270.252 243.096,268.341 245.566,265.195 248.989 C 261.109 253.436,258.926 255.417,254.800 258.424 C 250.252 261.738,249.265 262.400,248.870 262.400 C 248.671 262.400,248.029 262.777,247.444 263.237 C 245.377 264.863,233.654 270.800,232.510 270.800 C 232.284 270.800,231.874 271.070,231.600 271.400 C 231.326 271.730,230.719 272.006,230.251 272.013 C 229.783 272.019,228.500 272.468,227.400 273.009 C 226.300 273.550,225.169 273.994,224.886 273.996 C 224.603 273.998,223.973 274.250,223.486 274.555 C 222.999 274.860,221.880 275.237,221.000 275.391 C 220.120 275.545,219.220 275.814,219.000 275.989 C 218.180 276.639,210.186 278.850,205.276 279.785 C 203.668 280.091,202.138 280.517,201.876 280.731 C 201.614 280.946,200.140 281.243,198.600 281.391 C 197.060 281.539,194.720 281.994,193.400 282.401 C 192.080 282.808,189.380 283.263,187.400 283.413 C 185.420 283.562,183.473 283.858,183.072 284.071 C 182.672 284.284,179.072 284.633,175.072 284.847 C 171.073 285.062,165.910 285.413,163.600 285.628 C 156.612 286.278,129.926 286.542,125.800 286.003 C 120.644 285.328,119.270 284.825,115.534 282.246 C 115.498 282.221,115.350 277.700,115.206 272.200 C 114.849 258.621,114.475 257.437,109.317 253.564 C 108.171 252.704,106.995 252.000,106.702 252.000 C 106.409 252.000,105.463 251.640,104.600 251.200 C 103.241 250.507,102.241 250.400,97.138 250.400 C 91.486 250.400,91.199 250.360,90.122 249.435 L 89.000 248.471 88.877 240.275 L 88.755 232.079 90.019 230.640 L 91.283 229.200 100.013 229.200 C 108.681 229.200,109.170 229.265,110.050 230.529 C 110.077 230.568,110.244 233.300,110.421 236.600 C 111.056 248.422,112.157 250.418,119.800 253.601 L 122.200 254.600 137.600 254.519 C 146.070 254.474,153.900 254.260,155.000 254.043 C 156.100 253.826,160.071 253.446,163.825 253.199 C 167.579 252.952,171.359 252.563,172.225 252.334 C 173.091 252.106,175.448 251.773,177.462 251.594 C 179.476 251.415,181.466 251.086,181.885 250.862 C 182.303 250.638,184.256 250.329,186.223 250.176 C 188.190 250.023,190.407 249.651,191.149 249.349 C 191.891 249.047,193.685 248.610,195.134 248.379 C 196.583 248.147,197.958 247.801,198.189 247.609 C 198.583 247.283,199.833 246.931,206.100 245.382 C 208.608 244.763,210.422 244.088,212.532 242.989 C 213.155 242.665,213.825 242.400,214.021 242.400 C 214.744 242.400,219.432 240.195,225.587 236.960 C 227.009 236.212,228.404 235.600,228.687 235.600 C 228.969 235.600,229.200 235.433,229.200 235.229 C 229.200 235.024,230.100 234.274,231.200 233.561 C 232.300 232.848,233.200 232.128,233.200 231.960 C 233.200 231.791,233.557 231.541,233.994 231.402 C 234.774 231.154,241.001 225.022,242.637 222.890 C 246.847 217.403,249.692 211.405,250.459 206.400 C 251.524 199.450,250.737 185.758,249.126 183.200 C 248.779 182.650,248.393 181.382,248.267 180.382 C 248.141 179.382,247.920 178.257,247.776 177.882 C 247.356 176.787,248.746 177.043,251.139 178.500 M58.055 240.984 C 59.674 241.645,59.712 248.764,58.103 250.254 C 56.670 251.583,50.314 251.572,48.841 250.238 C 47.261 248.807,47.776 241.090,49.477 240.703 C 50.563 240.457,57.304 240.677,58.055 240.984 M83.000 241.263 C 83.220 241.469,83.459 244.069,83.531 247.041 C 83.707 254.271,83.627 254.400,78.978 254.400 C 74.647 254.400,73.530 254.882,70.300 258.144 C 67.392 261.080,67.310 261.302,66.952 267.200 C 66.590 273.160,66.544 273.200,60.056 273.200 C 53.116 273.200,53.200 273.287,53.200 266.062 C 53.200 259.113,53.134 259.200,58.368 259.200 C 66.389 259.200,70.118 255.118,70.185 246.260 C 70.214 242.309,70.332 241.439,70.893 241.029 C 71.690 240.446,82.349 240.652,83.000 241.263 M99.771 261.429 C 100.701 262.358,100.715 281.628,99.787 282.556 C 98.820 283.523,97.103 283.670,88.376 283.530 C 77.112 283.351,78.013 284.359,78.005 271.931 L 78.000 263.261 79.036 262.031 L 80.071 260.800 89.607 260.800 C 97.743 260.800,99.235 260.892,99.771 261.429 " stroke="none" fill="#fafafb" fill-rule="evenodd"></path><path id="path3" d="M249.153 178.688 C 249.090 179.097,249.114 179.197,250.271 183.400 C 250.817 185.380,251.446 187.990,251.670 189.200 C 252.208 192.113,251.867 207.588,251.256 207.965 C 251.010 208.117,250.638 209.132,250.429 210.221 C 250.078 212.053,249.278 214.149,248.377 215.600 C 248.172 215.930,247.713 216.875,247.359 217.700 C 247.004 218.525,246.597 219.200,246.454 219.200 C 246.312 219.200,245.974 219.695,245.704 220.300 C 245.433 220.905,244.624 222.080,243.906 222.911 C 243.188 223.741,242.060 225.073,241.400 225.871 C 239.946 227.627,235.896 231.595,235.554 231.598 C 235.419 231.599,234.699 232.154,233.954 232.830 C 233.209 233.507,232.015 234.319,231.300 234.636 C 230.585 234.952,230.000 235.365,230.000 235.554 C 230.000 235.743,228.785 236.518,227.300 237.276 C 225.815 238.033,223.520 239.213,222.200 239.897 C 218.061 242.042,213.850 243.909,212.528 244.186 C 211.828 244.332,211.054 244.694,210.808 244.991 C 210.561 245.288,209.424 245.657,208.280 245.812 C 207.136 245.967,205.750 246.318,205.200 246.591 C 204.650 246.865,203.399 247.212,202.420 247.362 C 201.441 247.512,200.437 247.803,200.189 248.009 C 199.941 248.215,198.582 248.646,197.169 248.966 C 195.756 249.287,193.880 249.737,193.000 249.965 C 192.120 250.194,190.617 250.385,189.660 250.390 C 188.704 250.396,187.354 250.654,186.660 250.964 C 185.967 251.274,183.870 251.739,182.000 251.996 C 180.130 252.254,177.520 252.631,176.200 252.833 C 174.880 253.036,171.550 253.387,168.800 253.613 C 166.050 253.839,163.486 254.199,163.103 254.413 C 162.720 254.628,157.543 254.921,151.599 255.066 C 143.312 255.267,140.687 255.454,140.347 255.864 C 139.692 256.653,124.298 256.641,123.643 255.852 C 123.393 255.550,122.483 255.209,121.621 255.094 C 116.796 254.446,110.420 249.071,110.386 245.622 C 110.378 244.840,110.114 243.750,109.800 243.200 C 109.383 242.471,109.225 240.717,109.214 236.733 C 109.195 229.238,110.208 230.000,100.256 230.000 L 91.797 230.000 90.699 231.164 L 89.600 232.328 89.614 239.864 C 89.628 247.042,89.671 247.451,90.514 248.474 L 91.400 249.549 98.115 249.674 C 102.578 249.758,104.926 249.953,105.115 250.255 C 105.272 250.506,106.088 250.900,106.929 251.131 C 109.668 251.884,114.169 256.082,114.584 258.271 C 114.717 258.970,115.045 259.615,115.313 259.704 C 115.673 259.823,115.852 262.638,116.000 270.472 C 116.153 278.603,116.327 281.232,116.745 281.735 C 117.802 283.006,119.826 283.931,122.188 284.221 C 123.501 284.382,125.160 284.758,125.875 285.057 C 127.819 285.869,156.763 285.847,158.339 285.031 C 159.148 284.613,161.974 284.389,169.019 284.185 C 175.398 283.999,179.335 283.709,180.800 283.315 C 182.010 282.990,184.890 282.630,187.200 282.515 C 189.918 282.380,191.621 282.113,192.025 281.759 C 192.369 281.458,193.989 281.047,195.625 280.846 C 197.261 280.644,199.590 280.194,200.800 279.845 C 202.010 279.495,203.923 279.207,205.051 279.205 C 206.331 279.202,207.279 278.986,207.574 278.631 C 207.834 278.318,208.801 277.937,209.723 277.784 C 210.645 277.631,211.850 277.282,212.400 277.008 C 212.950 276.735,214.205 276.388,215.190 276.237 C 216.174 276.086,217.254 275.725,217.590 275.435 C 217.925 275.145,219.087 274.793,220.171 274.652 C 221.255 274.511,222.439 274.127,222.802 273.798 C 223.166 273.469,224.006 273.200,224.670 273.200 C 225.346 273.200,226.178 272.867,226.562 272.442 C 226.940 272.025,228.047 271.564,229.024 271.417 C 230.001 271.271,230.800 270.989,230.800 270.791 C 230.800 270.593,231.520 270.237,232.400 270.000 C 233.280 269.763,234.000 269.400,234.000 269.192 C 234.000 268.985,234.495 268.696,235.100 268.549 C 236.067 268.316,238.168 267.361,240.000 266.324 C 240.330 266.137,241.173 265.720,241.873 265.398 C 242.573 265.076,243.250 264.643,243.377 264.437 C 243.505 264.230,244.146 263.944,244.802 263.800 C 245.458 263.655,246.131 263.327,246.298 263.069 C 246.586 262.621,247.839 261.823,249.995 260.712 C 250.541 260.431,251.261 259.964,251.595 259.676 C 253.051 258.415,256.339 256.000,256.599 256.000 C 257.700 256.000,269.372 243.173,270.056 241.213 C 270.288 240.546,270.626 240.000,270.807 240.000 C 270.988 240.000,271.258 239.448,271.406 238.773 C 271.554 238.098,271.924 237.451,272.227 237.334 C 272.530 237.218,272.900 236.465,273.048 235.661 C 273.196 234.858,273.651 233.573,274.059 232.806 C 274.466 232.039,274.800 230.756,274.800 229.955 C 274.800 229.153,275.092 227.801,275.450 226.949 C 276.190 225.185,276.078 212.479,275.314 211.513 C 275.091 211.231,274.805 209.946,274.679 208.659 C 274.553 207.371,274.168 206.007,273.825 205.627 C 273.481 205.248,273.188 204.681,273.173 204.369 C 273.159 204.056,272.619 202.900,271.975 201.800 C 271.330 200.700,270.583 199.350,270.314 198.800 C 268.990 196.089,264.167 190.326,260.197 186.710 C 259.539 186.111,258.550 185.159,258.000 184.595 C 257.450 184.032,255.740 182.741,254.200 181.727 C 252.660 180.712,250.905 179.543,250.300 179.129 C 249.695 178.715,249.179 178.516,249.153 178.688 M49.878 241.527 C 49.043 241.689,48.721 243.449,48.877 247.000 L 49.000 249.800 53.200 249.800 L 57.400 249.800 57.516 246.036 C 57.580 243.966,57.464 242.104,57.259 241.899 C 56.905 241.545,51.251 241.259,49.878 241.527 M71.572 241.687 C 70.862 241.951,70.800 242.405,70.800 247.294 C 70.800 252.373,70.752 252.686,69.745 254.207 C 68.269 256.436,66.352 258.400,65.653 258.400 C 65.329 258.400,64.717 258.713,64.295 259.095 C 63.692 259.641,62.602 259.821,59.208 259.938 C 53.941 260.118,54.000 260.044,54.000 266.475 C 54.000 272.095,53.863 271.970,60.020 271.987 C 65.593 272.003,65.596 272.000,65.613 268.020 C 65.621 266.001,65.820 264.743,66.213 264.224 C 66.536 263.796,66.800 262.786,66.800 261.979 C 66.800 257.865,73.068 253.200,78.595 253.200 C 80.586 253.200,82.026 253.014,82.320 252.720 C 82.994 252.046,82.977 243.184,82.300 242.302 C 81.758 241.596,73.145 241.102,71.572 241.687 M79.700 262.641 C 78.424 264.097,78.285 280.610,79.540 281.745 C 80.195 282.339,81.367 282.403,89.840 282.307 L 99.400 282.200 99.507 272.450 C 99.583 265.593,99.479 262.536,99.158 262.150 C 98.796 261.713,96.847 261.601,89.651 261.607 L 80.600 261.614 79.700 262.641 " stroke="none" fill="#403987" fill-rule="evenodd"></path></g></svg>